%TF.GenerationSoftware,KiCad,Pcbnew,9.0.2*%
%TF.CreationDate,2025-08-01T16:28:31+05:30*%
%TF.ProjectId,xiao-timer,7869616f-2d74-4696-9d65-722e6b696361,rev?*%
%TF.SameCoordinates,Original*%
%TF.FileFunction,Copper,L2,Bot*%
%TF.FilePolarity,Positive*%
%FSLAX46Y46*%
G04 Gerber Fmt 4.6, Leading zero omitted, Abs format (unit mm)*
G04 Created by KiCad (PCBNEW 9.0.2) date 2025-08-01 16:28:31*
%MOMM*%
%LPD*%
G01*
G04 APERTURE LIST*
%TA.AperFunction,ComponentPad*%
%ADD10C,1.815000*%
%TD*%
%TA.AperFunction,ComponentPad*%
%ADD11R,1.815000X1.815000*%
%TD*%
%TA.AperFunction,ComponentPad*%
%ADD12C,1.400000*%
%TD*%
%TA.AperFunction,ComponentPad*%
%ADD13C,2.200000*%
%TD*%
%TA.AperFunction,ComponentPad*%
%ADD14C,1.524000*%
%TD*%
%TA.AperFunction,ComponentPad*%
%ADD15R,2.000000X2.000000*%
%TD*%
%TA.AperFunction,ComponentPad*%
%ADD16C,2.000000*%
%TD*%
%TA.AperFunction,Conductor*%
%ADD17C,0.200000*%
%TD*%
G04 APERTURE END LIST*
D10*
%TO.P,D2,A*%
%TO.N,Net-(D2-PadA)*%
X120989859Y-69439572D03*
D11*
%TO.P,D2,C*%
%TO.N,GND*%
X120989859Y-71979572D03*
%TD*%
D10*
%TO.P,D1,A*%
%TO.N,Net-(D1-PadA)*%
X111499788Y-69439572D03*
D11*
%TO.P,D1,C*%
%TO.N,GND*%
X111499788Y-71979572D03*
%TD*%
D10*
%TO.P,D3,A*%
%TO.N,Net-(D3-PadA)*%
X130479929Y-69439572D03*
D11*
%TO.P,D3,C*%
%TO.N,GND*%
X130479929Y-71979572D03*
%TD*%
D12*
%TO.P,R2,1*%
%TO.N,Net-(D2-PadA)*%
X122944417Y-84432500D03*
%TO.P,R2,2*%
%TO.N,led2*%
X122944417Y-79352500D03*
%TD*%
D13*
%TO.P,SW3,1,1*%
%TO.N,btn3*%
X131127500Y-93320000D03*
%TO.P,SW3,2,2*%
%TO.N,GND*%
X124777500Y-95860000D03*
%TD*%
D14*
%TO.P,U1,1,GPIO26/ADC0/A0*%
%TO.N,btn1*%
X82750000Y-68158500D03*
%TO.P,U1,2,GPIO27/ADC1/A1*%
%TO.N,btn2*%
X82750000Y-70698500D03*
%TO.P,U1,3,GPIO28/ADC2/A2*%
%TO.N,btn3*%
X82750000Y-73238500D03*
%TO.P,U1,4,GPIO29/ADC3/A3*%
%TO.N,btn4*%
X82750000Y-75778500D03*
%TO.P,U1,5,GPIO6/SDA*%
%TO.N,led1*%
X82750000Y-78318500D03*
%TO.P,U1,6,GPIO7/SCL*%
%TO.N,led2*%
X82750000Y-80858500D03*
%TO.P,U1,7,GPIO0/TX*%
%TO.N,led3*%
X82750000Y-83398500D03*
%TO.P,U1,8,GPIO1/RX*%
%TO.N,led4*%
X97990000Y-83398500D03*
%TO.P,U1,9,GPIO2/SCK*%
%TO.N,buzzer*%
X97990000Y-80858500D03*
%TO.P,U1,10,GPIO4/MISO*%
%TO.N,unconnected-(U1-GPIO4{slash}MISO-Pad10)*%
X97990000Y-78318500D03*
%TO.P,U1,11,GPIO3/MOSI*%
%TO.N,unconnected-(U1-GPIO3{slash}MOSI-Pad11)*%
X97990000Y-75778500D03*
%TO.P,U1,12,3V3*%
%TO.N,unconnected-(U1-3V3-Pad12)*%
X97990000Y-73238500D03*
%TO.P,U1,13,GND*%
%TO.N,GND*%
X97990000Y-70698500D03*
%TO.P,U1,14,VBUS*%
%TO.N,unconnected-(U1-VBUS-Pad14)*%
X97990000Y-68158500D03*
%TD*%
D12*
%TO.P,R3,1*%
%TO.N,Net-(D3-PadA)*%
X128955083Y-84432500D03*
%TO.P,R3,2*%
%TO.N,led3*%
X128955083Y-79352500D03*
%TD*%
D10*
%TO.P,D4,A*%
%TO.N,Net-(D4-PadA)*%
X139970000Y-69560000D03*
D11*
%TO.P,D4,C*%
%TO.N,GND*%
X139970000Y-72100000D03*
%TD*%
D15*
%TO.P,BZ1,1,+*%
%TO.N,buzzer*%
X147181250Y-78581250D03*
D16*
%TO.P,BZ1,2,-*%
%TO.N,GND*%
X154781250Y-78581250D03*
%TD*%
D13*
%TO.P,SW1,1,1*%
%TO.N,btn1*%
X93027500Y-93320000D03*
%TO.P,SW1,2,2*%
%TO.N,GND*%
X86677500Y-95860000D03*
%TD*%
%TO.P,SW4,1,1*%
%TO.N,btn4*%
X150177500Y-93320000D03*
%TO.P,SW4,2,2*%
%TO.N,GND*%
X143827500Y-95860000D03*
%TD*%
D12*
%TO.P,R4,1*%
%TO.N,Net-(D4-PadA)*%
X134965750Y-84432500D03*
%TO.P,R4,2*%
%TO.N,led4*%
X134965750Y-79352500D03*
%TD*%
%TO.P,R1,1*%
%TO.N,Net-(D1-PadA)*%
X116933750Y-84432500D03*
%TO.P,R1,2*%
%TO.N,led1*%
X116933750Y-79352500D03*
%TD*%
D13*
%TO.P,SW2,1,1*%
%TO.N,btn2*%
X112077500Y-93320000D03*
%TO.P,SW2,2,2*%
%TO.N,GND*%
X105727500Y-95860000D03*
%TD*%
D17*
%TO.N,buzzer*%
X147181250Y-74495072D02*
X147181250Y-78581250D01*
X97990000Y-80858500D02*
X97990000Y-80673182D01*
X140516250Y-67830072D02*
X147181250Y-74495072D01*
X97990000Y-80673182D02*
X110833110Y-67830072D01*
X110833110Y-67830072D02*
X140516250Y-67830072D01*
%TO.N,Net-(D1-PadA)*%
X112708288Y-70648072D02*
X111499788Y-69439572D01*
X112708288Y-80207038D02*
X112708288Y-70648072D01*
X116933750Y-84432500D02*
X112708288Y-80207038D01*
%TO.N,Net-(D2-PadA)*%
X122944417Y-84432500D02*
X119781359Y-81269442D01*
X119781359Y-81269442D02*
X119781359Y-70648072D01*
X119781359Y-70648072D02*
X120989859Y-69439572D01*
%TO.N,Net-(D3-PadA)*%
X127954083Y-71965418D02*
X130479929Y-69439572D01*
X127954083Y-83431500D02*
X127954083Y-71965418D01*
X128955083Y-84432500D02*
X127954083Y-83431500D01*
%TO.N,Net-(D4-PadA)*%
X133964750Y-83431500D02*
X133964750Y-75565250D01*
X134965750Y-84432500D02*
X133964750Y-83431500D01*
X133964750Y-75565250D02*
X139970000Y-69560000D01*
%TO.N,led2*%
X87325000Y-85433500D02*
X123359045Y-85433500D01*
X82750000Y-80858500D02*
X87325000Y-85433500D01*
X123945417Y-80353500D02*
X122944417Y-79352500D01*
X123945417Y-84847128D02*
X123945417Y-80353500D01*
X123359045Y-85433500D02*
X123945417Y-84847128D01*
%TO.N,led3*%
X128968711Y-85834500D02*
X129956083Y-84847128D01*
X85186000Y-85834500D02*
X128968711Y-85834500D01*
X129956083Y-80353500D02*
X128955083Y-79352500D01*
X82750000Y-83398500D02*
X85186000Y-85834500D01*
X129956083Y-84847128D02*
X129956083Y-80353500D01*
%TO.N,led4*%
X110291288Y-71097212D02*
X110291288Y-68938994D01*
X141178500Y-73139750D02*
X134965750Y-79352500D01*
X110999210Y-68231072D02*
X140350150Y-68231072D01*
X140350150Y-68231072D02*
X141178500Y-69059422D01*
X110291288Y-68938994D02*
X110999210Y-68231072D01*
X97990000Y-83398500D02*
X110291288Y-71097212D01*
X141178500Y-69059422D02*
X141178500Y-73139750D01*
%TD*%
M02*
