M48
; DRILL file {KiCad 9.0.2} date 2025-08-01T16:29:11+0530
; FORMAT={-:-/ absolute / metric / decimal}
; #@! TF.CreationDate,2025-08-01T16:29:11+05:30
; #@! TF.GenerationSoftware,Kicad,Pcbnew,9.0.2
; #@! TF.FileFunction,Plated,1,2,PTH
FMAT,2
METRIC
; #@! TA.AperFunction,Plated,PTH,ComponentDrill
T1C0.700
; #@! TA.AperFunction,Plated,PTH,ComponentDrill
T2C0.889
; #@! TA.AperFunction,Plated,PTH,ComponentDrill
T3C1.000
; #@! TA.AperFunction,Plated,PTH,ComponentDrill
T4C1.210
; #@! TA.AperFunction,Plated,PTH,ComponentDrill
T5C1.500
%
G90
G05
T1
X116.934Y-79.352
X116.934Y-84.432
X122.944Y-79.352
X122.944Y-84.432
X128.955Y-79.352
X128.955Y-84.432
X134.966Y-79.352
X134.966Y-84.432
T2
X82.75Y-68.159
X82.75Y-70.698
X82.75Y-73.239
X82.75Y-75.778
X82.75Y-78.319
X82.75Y-80.858
X82.75Y-83.398
X97.99Y-68.159
X97.99Y-70.698
X97.99Y-73.239
X97.99Y-75.778
X97.99Y-78.319
X97.99Y-80.858
X97.99Y-83.398
T3
X147.181Y-78.581
X154.781Y-78.581
T4
X111.5Y-69.44
X111.5Y-71.98
X120.99Y-69.44
X120.99Y-71.98
X130.48Y-69.44
X130.48Y-71.98
X139.97Y-69.56
X139.97Y-72.1
T5
X86.677Y-95.86
X93.027Y-93.32
X105.727Y-95.86
X112.078Y-93.32
X124.777Y-95.86
X131.127Y-93.32
X143.827Y-95.86
X150.177Y-93.32
M30
