%TF.GenerationSoftware,KiCad,Pcbnew,9.0.2*%
%TF.CreationDate,2025-08-01T16:28:31+05:30*%
%TF.ProjectId,xiao-timer,7869616f-2d74-4696-9d65-722e6b696361,rev?*%
%TF.SameCoordinates,Original*%
%TF.FileFunction,Legend,Top*%
%TF.FilePolarity,Positive*%
%FSLAX46Y46*%
G04 Gerber Fmt 4.6, Leading zero omitted, Abs format (unit mm)*
G04 Created by KiCad (PCBNEW 9.0.2) date 2025-08-01 16:28:31*
%MOMM*%
%LPD*%
G01*
G04 APERTURE LIST*
%ADD10C,0.400000*%
%ADD11C,0.100000*%
%ADD12C,0.150000*%
%ADD13C,0.101600*%
%ADD14C,0.127000*%
%ADD15C,0.200000*%
%ADD16C,0.120000*%
%ADD17C,0.504000*%
G04 APERTURE END LIST*
D10*
X129567018Y-72838955D02*
X129160874Y-71433418D01*
X125397778Y-80361431D02*
X125288844Y-80578616D01*
X126004845Y-84848993D02*
G75*
G02*
X126102646Y-84864997I-45J-307107D01*
G01*
X100779157Y-75287781D02*
X99931758Y-75524673D01*
X107744846Y-67859515D02*
G75*
G02*
X107779018Y-67836882I32254J-11585D01*
G01*
X126630763Y-73654192D02*
X126940469Y-73438871D01*
X123812765Y-69663597D02*
X123265287Y-69815243D01*
X126102642Y-84865009D02*
X126341802Y-84942018D01*
X111539025Y-83274116D02*
X112348638Y-83577389D01*
X129070374Y-74000175D02*
X129517690Y-74157292D01*
X114558370Y-77823370D02*
X115071824Y-77164557D01*
X114968328Y-82139971D02*
X114677515Y-81137127D01*
X126341802Y-84942018D02*
X126634130Y-85044377D01*
X127564435Y-84495268D02*
X127296903Y-83578161D01*
X122410160Y-70155934D02*
X122726068Y-70417404D01*
X104377245Y-86145989D02*
G75*
G02*
X104249396Y-86028223I2955J131489D01*
G01*
X126263184Y-66509281D02*
X126104332Y-66870341D01*
X103303006Y-78843670D02*
X103980678Y-79384421D01*
X106940582Y-84472471D02*
X107960123Y-83740326D01*
X129844394Y-73842503D02*
X129720406Y-73380483D01*
X127743101Y-85153252D02*
X127664472Y-84849368D01*
X130101182Y-70235455D02*
X131041490Y-69037493D01*
X123801716Y-82372493D02*
X123453197Y-82476144D01*
X123531473Y-71053972D02*
X124670015Y-71927452D01*
X123094705Y-70714303D02*
X123531473Y-71053972D01*
X129948797Y-74248211D02*
X129844394Y-73842503D01*
X101582758Y-77501841D02*
X102492320Y-78206126D01*
X107093646Y-69679358D02*
X106699515Y-70826986D01*
X104333084Y-79815139D02*
G75*
G02*
X104399396Y-80287062I-1305484J-424061D01*
G01*
X107819114Y-67859448D02*
X107819138Y-67859431D01*
X105392209Y-74007749D02*
X105282074Y-74050672D01*
X123159563Y-82577465D02*
X122921918Y-82670456D01*
X114584966Y-73315489D02*
X113677454Y-73304598D01*
X104402969Y-80836535D02*
X104330573Y-82753493D01*
X115582631Y-84237121D02*
X115474273Y-83873469D01*
X108822784Y-83123902D02*
X109601581Y-82569207D01*
X113677454Y-73304598D02*
X111511392Y-73291993D01*
X127296903Y-83578161D02*
X127888459Y-82816407D01*
X124745499Y-74942993D02*
G75*
G02*
X124714953Y-74914072I1J30593D01*
G01*
X109621091Y-82562993D02*
G75*
G02*
X109641832Y-82566728I9J-59407D01*
G01*
X117976649Y-73482493D02*
X116910082Y-73399848D01*
X125035015Y-81206989D02*
X124710839Y-82118493D01*
X125397778Y-80361431D02*
G75*
G02*
X125443864Y-80347865I29122J-13869D01*
G01*
X114326480Y-78128465D02*
X114558370Y-77823370D01*
X129160874Y-71433418D02*
X130101182Y-70235455D01*
X124300198Y-84958407D02*
X124272481Y-86006937D01*
X125165412Y-80861187D02*
X125035015Y-81206989D01*
X102688503Y-74762036D02*
X100779157Y-75287781D01*
X126314328Y-66493360D02*
G75*
G02*
X126373021Y-66548477I-106428J-172140D01*
G01*
X124272481Y-86006937D02*
X125068159Y-85427965D01*
X122410160Y-70155934D02*
G75*
G02*
X122388488Y-70113518I38340J46334D01*
G01*
X129948797Y-74248211D02*
G75*
G02*
X129940945Y-74281553I-35697J-9189D01*
G01*
X128545318Y-73806494D02*
X129070374Y-74000175D01*
X124798214Y-74927110D02*
X125103065Y-74725325D01*
X115762676Y-84831749D02*
X115582631Y-84237121D01*
X122411419Y-70079753D02*
X122411410Y-70079725D01*
X125443886Y-80347830D02*
G75*
G02*
X125495088Y-80395640I-93886J-151870D01*
G01*
X105944659Y-72970197D02*
X105626944Y-73823305D01*
X128456290Y-81965772D02*
G75*
G02*
X128479998Y-81991322I-1890J-25528D01*
G01*
X126263184Y-66509281D02*
G75*
G02*
X126314358Y-66493311I32516J-14219D01*
G01*
X99260000Y-75715000D02*
X101582758Y-77501841D01*
X123609965Y-83355281D02*
X124327915Y-83909878D01*
X129517690Y-74157292D02*
X129909998Y-74289951D01*
X125454302Y-74486007D02*
X125856749Y-74201995D01*
X103980678Y-79384421D02*
G75*
G02*
X104177181Y-79560585I-1502078J-1873179D01*
G01*
X126940469Y-73438871D02*
X127037191Y-73377698D01*
X115683978Y-76383800D02*
X116338582Y-75553832D01*
X108969047Y-69521000D02*
X108362728Y-68640213D01*
X123334840Y-83136434D02*
X123609965Y-83355281D01*
X125648070Y-80608870D02*
X125495090Y-80395639D01*
X105282074Y-74050672D02*
X105175515Y-74083052D01*
X107744846Y-67859515D02*
X107435718Y-68713734D01*
X131041490Y-69037493D02*
X129521031Y-69001949D01*
X116356342Y-73367121D02*
X115520539Y-73337777D01*
X112348638Y-83577389D02*
X113217426Y-83900677D01*
X126020048Y-81162973D02*
X125825596Y-80866912D01*
X104287964Y-83898243D02*
X104257946Y-84920357D01*
X128190891Y-81946270D02*
X127873162Y-81931861D01*
X107435718Y-68713734D02*
X107093646Y-69679358D01*
X109601581Y-82569207D02*
G75*
G02*
X109621091Y-82563004I19419J-27293D01*
G01*
X122805020Y-69953728D02*
X122411410Y-70079725D01*
X104668744Y-74218155D02*
X102688503Y-74762036D01*
X114018846Y-84197113D02*
X114596595Y-84408493D01*
X115242484Y-83081214D02*
X114968328Y-82139971D01*
X105462134Y-73974646D02*
X105392209Y-74007749D01*
X127765761Y-85454806D02*
X127765758Y-85454814D01*
X105626944Y-73823305D02*
G75*
G02*
X105556521Y-73919032I-203044J75605D01*
G01*
X105239815Y-85689359D02*
G75*
G02*
X104636008Y-86079702I-4222315J5869159D01*
G01*
X114596595Y-84408493D02*
X115762676Y-84831749D01*
X127539905Y-73469282D02*
X128012380Y-73616293D01*
X125103065Y-74725325D02*
X125454302Y-74486007D01*
X123265287Y-69815243D02*
X122805020Y-69953728D01*
X127873162Y-81931861D02*
X127495765Y-81926882D01*
X104249410Y-86028221D02*
G75*
G02*
X104238898Y-85783157I1980790J207721D01*
G01*
X129940945Y-74281553D02*
G75*
G02*
X129909993Y-74289967I-21745J18853D01*
G01*
X129521031Y-69001949D02*
X128000573Y-68966404D01*
X126373021Y-66548477D02*
X126373027Y-66548473D01*
X124692188Y-74500085D02*
X124714936Y-74914073D01*
X107960123Y-83740326D02*
X108822784Y-83123902D01*
X128480015Y-81991322D02*
G75*
G02*
X128467088Y-82033391I-75315J122D01*
G01*
X126264056Y-73912073D02*
X126630763Y-73654192D01*
X122915499Y-82766491D02*
G75*
G02*
X122892330Y-82713588I48101J52591D01*
G01*
X124714961Y-74914072D02*
X124714936Y-74914073D01*
X124670015Y-73435222D02*
X124675441Y-74013365D01*
X126614422Y-66888990D02*
X126373027Y-66548473D01*
X122915499Y-82766491D02*
X123102998Y-82938012D01*
X125856749Y-74201995D02*
X126264056Y-73912073D01*
X104330573Y-82753493D02*
X104287964Y-83898243D01*
X104177178Y-79560588D02*
G75*
G02*
X104333092Y-79815136I-452378J-452112D01*
G01*
X116910082Y-73399848D02*
X116356342Y-73367121D01*
X125241515Y-69280648D02*
X123812765Y-69663597D01*
X128115185Y-82519869D02*
X128306245Y-82259814D01*
X105556515Y-73919025D02*
G75*
G02*
X105462132Y-73974642I-266715J344725D01*
G01*
X126634130Y-85044377D02*
X126953921Y-85165672D01*
X122726068Y-70417404D02*
X123094705Y-70714303D01*
X127805979Y-85415489D02*
G75*
G02*
X127796989Y-85447374I-32979J-7911D01*
G01*
X110195392Y-82771885D02*
X110811913Y-83001467D01*
X127888459Y-82816407D02*
X128115185Y-82519869D01*
X128306245Y-82259814D02*
X128467099Y-82033399D01*
X105175515Y-74083052D02*
X104668744Y-74218155D01*
X128012380Y-73616293D02*
X128545318Y-73806494D01*
X125288844Y-80578616D02*
X125165412Y-80861187D01*
X122921930Y-82670487D02*
X122921918Y-82670456D01*
X104257946Y-84920357D02*
X104238893Y-85783157D01*
X127805979Y-85415489D02*
X127743101Y-85153252D01*
X127796978Y-85447363D02*
G75*
G02*
X127765756Y-85454823I-21678J21663D01*
G01*
X124675441Y-74013365D02*
X124692188Y-74500085D01*
X127495765Y-81926882D02*
X126511515Y-81925771D01*
X128000573Y-68966404D02*
X127204312Y-67758845D01*
X108362728Y-68640213D02*
X107819138Y-67859431D01*
X126104332Y-66870341D02*
X125925522Y-67316637D01*
X123453197Y-82476144D02*
X123159563Y-82577465D01*
X104636007Y-86079700D02*
G75*
G02*
X104377245Y-86145996I-247607J428300D01*
G01*
X102492320Y-78206126D02*
X103303006Y-78843670D01*
X129720406Y-73380483D02*
X129567018Y-72838955D01*
X113217426Y-83900677D02*
X114018846Y-84197113D01*
X109641838Y-82566713D02*
X110195392Y-82771885D01*
X127534897Y-85379049D02*
X127765758Y-85454814D01*
X109676954Y-70566312D02*
X108969047Y-69521000D01*
X110811913Y-83001467D02*
X111539025Y-83274116D01*
X125383233Y-85206167D02*
X125671527Y-85019066D01*
X125825596Y-80866912D02*
X125648070Y-80608870D01*
X127266224Y-85284553D02*
X127534897Y-85379049D01*
X126511515Y-81925771D02*
X126020048Y-81162973D01*
X113952444Y-78631761D02*
X114326480Y-78128465D01*
X106699515Y-70826986D02*
X106300907Y-71981599D01*
X111511392Y-73291993D02*
X109676954Y-70566312D01*
X125671527Y-85019066D02*
X125916375Y-84872731D01*
X126953921Y-85165672D02*
X127266224Y-85284553D01*
X122388473Y-70113519D02*
G75*
G02*
X122411414Y-70079738I32927J2319D01*
G01*
X123102998Y-82938012D02*
X123334840Y-83136434D01*
X127664472Y-84849368D02*
X127564435Y-84495268D01*
X106300907Y-71981599D02*
X105944659Y-72970197D01*
X99931758Y-75524673D02*
X99260000Y-75715000D01*
X115071824Y-77164557D02*
X115683978Y-76383800D01*
X125916375Y-84872731D02*
G75*
G02*
X126004845Y-84848976I88525J-153069D01*
G01*
X125731059Y-67858042D02*
X125241515Y-69280648D01*
X125068159Y-85427965D02*
X125383233Y-85206167D01*
X127204312Y-67758845D02*
X126892380Y-67291886D01*
X124327915Y-83909878D02*
X124300198Y-84958407D01*
X127037191Y-73377698D02*
G75*
G02*
X127148000Y-73364077I71509J-124202D01*
G01*
X128456290Y-81965772D02*
X128190891Y-81946270D01*
X127148003Y-73364066D02*
X127539905Y-73469282D01*
X124670015Y-71927452D02*
X124670015Y-73435222D01*
X104399404Y-80287062D02*
X104402969Y-80836535D01*
X124710839Y-82118493D02*
X123801716Y-82372493D01*
X124798214Y-74927110D02*
G75*
G02*
X124745499Y-74942997I-52714J79510D01*
G01*
X114677515Y-81137127D02*
X113952444Y-78631761D01*
X126892380Y-67291886D02*
X126614422Y-66888990D01*
X125925522Y-67316637D02*
X125731059Y-67858042D01*
X107779015Y-67836931D02*
G75*
G02*
X107819099Y-67859458I-3115J-52469D01*
G01*
X116338582Y-75553832D02*
X117976649Y-73482493D01*
X105239815Y-85689359D02*
X106940582Y-84472471D01*
X115474273Y-83873469D02*
X115242484Y-83081214D01*
X115520539Y-73337777D02*
X114584966Y-73315489D01*
X122892304Y-82713588D02*
G75*
G02*
X122921925Y-82670474I46496J-212D01*
G01*
D11*
X86587392Y-68542419D02*
X87254058Y-69542419D01*
X87254058Y-68542419D02*
X86587392Y-69542419D01*
X87635011Y-69542419D02*
X87635011Y-68542419D01*
X88063582Y-69256704D02*
X88539772Y-69256704D01*
X87968344Y-69542419D02*
X88301677Y-68542419D01*
X88301677Y-68542419D02*
X88635010Y-69542419D01*
X89158820Y-68542419D02*
X89349296Y-68542419D01*
X89349296Y-68542419D02*
X89444534Y-68590038D01*
X89444534Y-68590038D02*
X89539772Y-68685276D01*
X89539772Y-68685276D02*
X89587391Y-68875752D01*
X89587391Y-68875752D02*
X89587391Y-69209085D01*
X89587391Y-69209085D02*
X89539772Y-69399561D01*
X89539772Y-69399561D02*
X89444534Y-69494800D01*
X89444534Y-69494800D02*
X89349296Y-69542419D01*
X89349296Y-69542419D02*
X89158820Y-69542419D01*
X89158820Y-69542419D02*
X89063582Y-69494800D01*
X89063582Y-69494800D02*
X88968344Y-69399561D01*
X88968344Y-69399561D02*
X88920725Y-69209085D01*
X88920725Y-69209085D02*
X88920725Y-68875752D01*
X88920725Y-68875752D02*
X88968344Y-68685276D01*
X88968344Y-68685276D02*
X89063582Y-68590038D01*
X89063582Y-68590038D02*
X89158820Y-68542419D01*
X90777868Y-69542419D02*
X90777868Y-68542419D01*
X90777868Y-69018609D02*
X91349296Y-69018609D01*
X91349296Y-69542419D02*
X91349296Y-68542419D01*
X91825487Y-69018609D02*
X92158820Y-69018609D01*
X92301677Y-69542419D02*
X91825487Y-69542419D01*
X91825487Y-69542419D02*
X91825487Y-68542419D01*
X91825487Y-68542419D02*
X92301677Y-68542419D01*
X93301677Y-69542419D02*
X92968344Y-69066228D01*
X92730249Y-69542419D02*
X92730249Y-68542419D01*
X92730249Y-68542419D02*
X93111201Y-68542419D01*
X93111201Y-68542419D02*
X93206439Y-68590038D01*
X93206439Y-68590038D02*
X93254058Y-68637657D01*
X93254058Y-68637657D02*
X93301677Y-68732895D01*
X93301677Y-68732895D02*
X93301677Y-68875752D01*
X93301677Y-68875752D02*
X93254058Y-68970990D01*
X93254058Y-68970990D02*
X93206439Y-69018609D01*
X93206439Y-69018609D02*
X93111201Y-69066228D01*
X93111201Y-69066228D02*
X92730249Y-69066228D01*
X93730249Y-69018609D02*
X94063582Y-69018609D01*
X94206439Y-69542419D02*
X93730249Y-69542419D01*
X93730249Y-69542419D02*
X93730249Y-68542419D01*
X93730249Y-68542419D02*
X94206439Y-68542419D01*
X94635011Y-69447180D02*
X94682630Y-69494800D01*
X94682630Y-69494800D02*
X94635011Y-69542419D01*
X94635011Y-69542419D02*
X94587392Y-69494800D01*
X94587392Y-69494800D02*
X94635011Y-69447180D01*
X94635011Y-69447180D02*
X94635011Y-69542419D01*
X94635011Y-69161466D02*
X94587392Y-68590038D01*
X94587392Y-68590038D02*
X94635011Y-68542419D01*
X94635011Y-68542419D02*
X94682630Y-68590038D01*
X94682630Y-68590038D02*
X94635011Y-69161466D01*
X94635011Y-69161466D02*
X94635011Y-68542419D01*
D12*
X157173152Y-88043220D02*
X157839819Y-88043220D01*
X157268390Y-88043220D02*
X157220771Y-87995601D01*
X157220771Y-87995601D02*
X157173152Y-87900363D01*
X157173152Y-87900363D02*
X157173152Y-87757506D01*
X157173152Y-87757506D02*
X157220771Y-87662268D01*
X157220771Y-87662268D02*
X157316009Y-87614649D01*
X157316009Y-87614649D02*
X157839819Y-87614649D01*
X157839819Y-87138458D02*
X157173152Y-87138458D01*
X156839819Y-87138458D02*
X156887438Y-87186077D01*
X156887438Y-87186077D02*
X156935057Y-87138458D01*
X156935057Y-87138458D02*
X156887438Y-87090839D01*
X156887438Y-87090839D02*
X156839819Y-87138458D01*
X156839819Y-87138458D02*
X156935057Y-87138458D01*
X157792200Y-86709887D02*
X157839819Y-86614649D01*
X157839819Y-86614649D02*
X157839819Y-86424173D01*
X157839819Y-86424173D02*
X157792200Y-86328935D01*
X157792200Y-86328935D02*
X157696961Y-86281316D01*
X157696961Y-86281316D02*
X157649342Y-86281316D01*
X157649342Y-86281316D02*
X157554104Y-86328935D01*
X157554104Y-86328935D02*
X157506485Y-86424173D01*
X157506485Y-86424173D02*
X157506485Y-86567030D01*
X157506485Y-86567030D02*
X157458866Y-86662268D01*
X157458866Y-86662268D02*
X157363628Y-86709887D01*
X157363628Y-86709887D02*
X157316009Y-86709887D01*
X157316009Y-86709887D02*
X157220771Y-86662268D01*
X157220771Y-86662268D02*
X157173152Y-86567030D01*
X157173152Y-86567030D02*
X157173152Y-86424173D01*
X157173152Y-86424173D02*
X157220771Y-86328935D01*
X157839819Y-85852744D02*
X156839819Y-85852744D01*
X157839819Y-85424173D02*
X157316009Y-85424173D01*
X157316009Y-85424173D02*
X157220771Y-85471792D01*
X157220771Y-85471792D02*
X157173152Y-85567030D01*
X157173152Y-85567030D02*
X157173152Y-85709887D01*
X157173152Y-85709887D02*
X157220771Y-85805125D01*
X157220771Y-85805125D02*
X157268390Y-85852744D01*
X157173152Y-85090839D02*
X157173152Y-84709887D01*
X156839819Y-84947982D02*
X157696961Y-84947982D01*
X157696961Y-84947982D02*
X157792200Y-84900363D01*
X157792200Y-84900363D02*
X157839819Y-84805125D01*
X157839819Y-84805125D02*
X157839819Y-84709887D01*
X157839819Y-84376553D02*
X156839819Y-84376553D01*
X157839819Y-83947982D02*
X157316009Y-83947982D01*
X157316009Y-83947982D02*
X157220771Y-83995601D01*
X157220771Y-83995601D02*
X157173152Y-84090839D01*
X157173152Y-84090839D02*
X157173152Y-84233696D01*
X157173152Y-84233696D02*
X157220771Y-84328934D01*
X157220771Y-84328934D02*
X157268390Y-84376553D01*
X157839819Y-83043220D02*
X157316009Y-83043220D01*
X157316009Y-83043220D02*
X157220771Y-83090839D01*
X157220771Y-83090839D02*
X157173152Y-83186077D01*
X157173152Y-83186077D02*
X157173152Y-83376553D01*
X157173152Y-83376553D02*
X157220771Y-83471791D01*
X157792200Y-83043220D02*
X157839819Y-83138458D01*
X157839819Y-83138458D02*
X157839819Y-83376553D01*
X157839819Y-83376553D02*
X157792200Y-83471791D01*
X157792200Y-83471791D02*
X157696961Y-83519410D01*
X157696961Y-83519410D02*
X157601723Y-83519410D01*
X157601723Y-83519410D02*
X157506485Y-83471791D01*
X157506485Y-83471791D02*
X157458866Y-83376553D01*
X157458866Y-83376553D02*
X157458866Y-83138458D01*
X157458866Y-83138458D02*
X157411247Y-83043220D01*
X157792200Y-81852743D02*
X157839819Y-81757505D01*
X157839819Y-81757505D02*
X157839819Y-81567029D01*
X157839819Y-81567029D02*
X157792200Y-81471791D01*
X157792200Y-81471791D02*
X157696961Y-81424172D01*
X157696961Y-81424172D02*
X157649342Y-81424172D01*
X157649342Y-81424172D02*
X157554104Y-81471791D01*
X157554104Y-81471791D02*
X157506485Y-81567029D01*
X157506485Y-81567029D02*
X157506485Y-81709886D01*
X157506485Y-81709886D02*
X157458866Y-81805124D01*
X157458866Y-81805124D02*
X157363628Y-81852743D01*
X157363628Y-81852743D02*
X157316009Y-81852743D01*
X157316009Y-81852743D02*
X157220771Y-81805124D01*
X157220771Y-81805124D02*
X157173152Y-81709886D01*
X157173152Y-81709886D02*
X157173152Y-81567029D01*
X157173152Y-81567029D02*
X157220771Y-81471791D01*
D11*
X124523884Y-66192419D02*
X124523884Y-65192419D01*
X124523884Y-65573371D02*
X124619122Y-65525752D01*
X124619122Y-65525752D02*
X124809598Y-65525752D01*
X124809598Y-65525752D02*
X124904836Y-65573371D01*
X124904836Y-65573371D02*
X124952455Y-65620990D01*
X124952455Y-65620990D02*
X125000074Y-65716228D01*
X125000074Y-65716228D02*
X125000074Y-66001942D01*
X125000074Y-66001942D02*
X124952455Y-66097180D01*
X124952455Y-66097180D02*
X124904836Y-66144800D01*
X124904836Y-66144800D02*
X124809598Y-66192419D01*
X124809598Y-66192419D02*
X124619122Y-66192419D01*
X124619122Y-66192419D02*
X124523884Y-66144800D01*
X125571503Y-66192419D02*
X125476265Y-66144800D01*
X125476265Y-66144800D02*
X125428646Y-66049561D01*
X125428646Y-66049561D02*
X125428646Y-65192419D01*
X126381027Y-66192419D02*
X126381027Y-65668609D01*
X126381027Y-65668609D02*
X126333408Y-65573371D01*
X126333408Y-65573371D02*
X126238170Y-65525752D01*
X126238170Y-65525752D02*
X126047694Y-65525752D01*
X126047694Y-65525752D02*
X125952456Y-65573371D01*
X126381027Y-66144800D02*
X126285789Y-66192419D01*
X126285789Y-66192419D02*
X126047694Y-66192419D01*
X126047694Y-66192419D02*
X125952456Y-66144800D01*
X125952456Y-66144800D02*
X125904837Y-66049561D01*
X125904837Y-66049561D02*
X125904837Y-65954323D01*
X125904837Y-65954323D02*
X125952456Y-65859085D01*
X125952456Y-65859085D02*
X126047694Y-65811466D01*
X126047694Y-65811466D02*
X126285789Y-65811466D01*
X126285789Y-65811466D02*
X126381027Y-65763847D01*
X127285789Y-66144800D02*
X127190551Y-66192419D01*
X127190551Y-66192419D02*
X127000075Y-66192419D01*
X127000075Y-66192419D02*
X126904837Y-66144800D01*
X126904837Y-66144800D02*
X126857218Y-66097180D01*
X126857218Y-66097180D02*
X126809599Y-66001942D01*
X126809599Y-66001942D02*
X126809599Y-65716228D01*
X126809599Y-65716228D02*
X126857218Y-65620990D01*
X126857218Y-65620990D02*
X126904837Y-65573371D01*
X126904837Y-65573371D02*
X127000075Y-65525752D01*
X127000075Y-65525752D02*
X127190551Y-65525752D01*
X127190551Y-65525752D02*
X127285789Y-65573371D01*
X127714361Y-66192419D02*
X127714361Y-65192419D01*
X127809599Y-65811466D02*
X128095313Y-66192419D01*
X128095313Y-65525752D02*
X127714361Y-65906704D01*
X129238171Y-66144800D02*
X129333409Y-66192419D01*
X129333409Y-66192419D02*
X129523885Y-66192419D01*
X129523885Y-66192419D02*
X129619123Y-66144800D01*
X129619123Y-66144800D02*
X129666742Y-66049561D01*
X129666742Y-66049561D02*
X129666742Y-66001942D01*
X129666742Y-66001942D02*
X129619123Y-65906704D01*
X129619123Y-65906704D02*
X129523885Y-65859085D01*
X129523885Y-65859085D02*
X129381028Y-65859085D01*
X129381028Y-65859085D02*
X129285790Y-65811466D01*
X129285790Y-65811466D02*
X129238171Y-65716228D01*
X129238171Y-65716228D02*
X129238171Y-65668609D01*
X129238171Y-65668609D02*
X129285790Y-65573371D01*
X129285790Y-65573371D02*
X129381028Y-65525752D01*
X129381028Y-65525752D02*
X129523885Y-65525752D01*
X129523885Y-65525752D02*
X129619123Y-65573371D01*
X130000076Y-65525752D02*
X130190552Y-66192419D01*
X130190552Y-66192419D02*
X130381028Y-65716228D01*
X130381028Y-65716228D02*
X130571504Y-66192419D01*
X130571504Y-66192419D02*
X130761980Y-65525752D01*
X131571504Y-66192419D02*
X131571504Y-65668609D01*
X131571504Y-65668609D02*
X131523885Y-65573371D01*
X131523885Y-65573371D02*
X131428647Y-65525752D01*
X131428647Y-65525752D02*
X131238171Y-65525752D01*
X131238171Y-65525752D02*
X131142933Y-65573371D01*
X131571504Y-66144800D02*
X131476266Y-66192419D01*
X131476266Y-66192419D02*
X131238171Y-66192419D01*
X131238171Y-66192419D02*
X131142933Y-66144800D01*
X131142933Y-66144800D02*
X131095314Y-66049561D01*
X131095314Y-66049561D02*
X131095314Y-65954323D01*
X131095314Y-65954323D02*
X131142933Y-65859085D01*
X131142933Y-65859085D02*
X131238171Y-65811466D01*
X131238171Y-65811466D02*
X131476266Y-65811466D01*
X131476266Y-65811466D02*
X131571504Y-65763847D01*
X132047695Y-65525752D02*
X132047695Y-66192419D01*
X132047695Y-65620990D02*
X132095314Y-65573371D01*
X132095314Y-65573371D02*
X132190552Y-65525752D01*
X132190552Y-65525752D02*
X132333409Y-65525752D01*
X132333409Y-65525752D02*
X132428647Y-65573371D01*
X132428647Y-65573371D02*
X132476266Y-65668609D01*
X132476266Y-65668609D02*
X132476266Y-66192419D01*
D12*
X117644154Y-71260047D02*
X116844154Y-71260047D01*
X116844154Y-71260047D02*
X116844154Y-71069571D01*
X116844154Y-71069571D02*
X116882249Y-70955285D01*
X116882249Y-70955285D02*
X116958439Y-70879095D01*
X116958439Y-70879095D02*
X117034630Y-70841000D01*
X117034630Y-70841000D02*
X117187011Y-70802904D01*
X117187011Y-70802904D02*
X117301297Y-70802904D01*
X117301297Y-70802904D02*
X117453678Y-70841000D01*
X117453678Y-70841000D02*
X117529868Y-70879095D01*
X117529868Y-70879095D02*
X117606059Y-70955285D01*
X117606059Y-70955285D02*
X117644154Y-71069571D01*
X117644154Y-71069571D02*
X117644154Y-71260047D01*
X116920344Y-70498143D02*
X116882249Y-70460047D01*
X116882249Y-70460047D02*
X116844154Y-70383857D01*
X116844154Y-70383857D02*
X116844154Y-70193381D01*
X116844154Y-70193381D02*
X116882249Y-70117190D01*
X116882249Y-70117190D02*
X116920344Y-70079095D01*
X116920344Y-70079095D02*
X116996535Y-70041000D01*
X116996535Y-70041000D02*
X117072725Y-70041000D01*
X117072725Y-70041000D02*
X117187011Y-70079095D01*
X117187011Y-70079095D02*
X117644154Y-70536238D01*
X117644154Y-70536238D02*
X117644154Y-70041000D01*
X108154083Y-71260047D02*
X107354083Y-71260047D01*
X107354083Y-71260047D02*
X107354083Y-71069571D01*
X107354083Y-71069571D02*
X107392178Y-70955285D01*
X107392178Y-70955285D02*
X107468368Y-70879095D01*
X107468368Y-70879095D02*
X107544559Y-70841000D01*
X107544559Y-70841000D02*
X107696940Y-70802904D01*
X107696940Y-70802904D02*
X107811226Y-70802904D01*
X107811226Y-70802904D02*
X107963607Y-70841000D01*
X107963607Y-70841000D02*
X108039797Y-70879095D01*
X108039797Y-70879095D02*
X108115988Y-70955285D01*
X108115988Y-70955285D02*
X108154083Y-71069571D01*
X108154083Y-71069571D02*
X108154083Y-71260047D01*
X108154083Y-70041000D02*
X108154083Y-70498143D01*
X108154083Y-70269571D02*
X107354083Y-70269571D01*
X107354083Y-70269571D02*
X107468368Y-70345762D01*
X107468368Y-70345762D02*
X107544559Y-70421952D01*
X107544559Y-70421952D02*
X107582654Y-70498143D01*
X127134224Y-71260047D02*
X126334224Y-71260047D01*
X126334224Y-71260047D02*
X126334224Y-71069571D01*
X126334224Y-71069571D02*
X126372319Y-70955285D01*
X126372319Y-70955285D02*
X126448509Y-70879095D01*
X126448509Y-70879095D02*
X126524700Y-70841000D01*
X126524700Y-70841000D02*
X126677081Y-70802904D01*
X126677081Y-70802904D02*
X126791367Y-70802904D01*
X126791367Y-70802904D02*
X126943748Y-70841000D01*
X126943748Y-70841000D02*
X127019938Y-70879095D01*
X127019938Y-70879095D02*
X127096129Y-70955285D01*
X127096129Y-70955285D02*
X127134224Y-71069571D01*
X127134224Y-71069571D02*
X127134224Y-71260047D01*
X126334224Y-70536238D02*
X126334224Y-70041000D01*
X126334224Y-70041000D02*
X126638986Y-70307666D01*
X126638986Y-70307666D02*
X126638986Y-70193381D01*
X126638986Y-70193381D02*
X126677081Y-70117190D01*
X126677081Y-70117190D02*
X126715176Y-70079095D01*
X126715176Y-70079095D02*
X126791367Y-70041000D01*
X126791367Y-70041000D02*
X126981843Y-70041000D01*
X126981843Y-70041000D02*
X127058033Y-70079095D01*
X127058033Y-70079095D02*
X127096129Y-70117190D01*
X127096129Y-70117190D02*
X127134224Y-70193381D01*
X127134224Y-70193381D02*
X127134224Y-70421952D01*
X127134224Y-70421952D02*
X127096129Y-70498143D01*
X127096129Y-70498143D02*
X127058033Y-70536238D01*
X121479236Y-82059166D02*
X121003045Y-82392499D01*
X121479236Y-82630594D02*
X120479236Y-82630594D01*
X120479236Y-82630594D02*
X120479236Y-82249642D01*
X120479236Y-82249642D02*
X120526855Y-82154404D01*
X120526855Y-82154404D02*
X120574474Y-82106785D01*
X120574474Y-82106785D02*
X120669712Y-82059166D01*
X120669712Y-82059166D02*
X120812569Y-82059166D01*
X120812569Y-82059166D02*
X120907807Y-82106785D01*
X120907807Y-82106785D02*
X120955426Y-82154404D01*
X120955426Y-82154404D02*
X121003045Y-82249642D01*
X121003045Y-82249642D02*
X121003045Y-82630594D01*
X120574474Y-81678213D02*
X120526855Y-81630594D01*
X120526855Y-81630594D02*
X120479236Y-81535356D01*
X120479236Y-81535356D02*
X120479236Y-81297261D01*
X120479236Y-81297261D02*
X120526855Y-81202023D01*
X120526855Y-81202023D02*
X120574474Y-81154404D01*
X120574474Y-81154404D02*
X120669712Y-81106785D01*
X120669712Y-81106785D02*
X120764950Y-81106785D01*
X120764950Y-81106785D02*
X120907807Y-81154404D01*
X120907807Y-81154404D02*
X121479236Y-81725832D01*
X121479236Y-81725832D02*
X121479236Y-81106785D01*
X127254167Y-90933200D02*
X127397024Y-90980819D01*
X127397024Y-90980819D02*
X127635119Y-90980819D01*
X127635119Y-90980819D02*
X127730357Y-90933200D01*
X127730357Y-90933200D02*
X127777976Y-90885580D01*
X127777976Y-90885580D02*
X127825595Y-90790342D01*
X127825595Y-90790342D02*
X127825595Y-90695104D01*
X127825595Y-90695104D02*
X127777976Y-90599866D01*
X127777976Y-90599866D02*
X127730357Y-90552247D01*
X127730357Y-90552247D02*
X127635119Y-90504628D01*
X127635119Y-90504628D02*
X127444643Y-90457009D01*
X127444643Y-90457009D02*
X127349405Y-90409390D01*
X127349405Y-90409390D02*
X127301786Y-90361771D01*
X127301786Y-90361771D02*
X127254167Y-90266533D01*
X127254167Y-90266533D02*
X127254167Y-90171295D01*
X127254167Y-90171295D02*
X127301786Y-90076057D01*
X127301786Y-90076057D02*
X127349405Y-90028438D01*
X127349405Y-90028438D02*
X127444643Y-89980819D01*
X127444643Y-89980819D02*
X127682738Y-89980819D01*
X127682738Y-89980819D02*
X127825595Y-90028438D01*
X128158929Y-89980819D02*
X128397024Y-90980819D01*
X128397024Y-90980819D02*
X128587500Y-90266533D01*
X128587500Y-90266533D02*
X128777976Y-90980819D01*
X128777976Y-90980819D02*
X129016072Y-89980819D01*
X129301786Y-89980819D02*
X129920833Y-89980819D01*
X129920833Y-89980819D02*
X129587500Y-90361771D01*
X129587500Y-90361771D02*
X129730357Y-90361771D01*
X129730357Y-90361771D02*
X129825595Y-90409390D01*
X129825595Y-90409390D02*
X129873214Y-90457009D01*
X129873214Y-90457009D02*
X129920833Y-90552247D01*
X129920833Y-90552247D02*
X129920833Y-90790342D01*
X129920833Y-90790342D02*
X129873214Y-90885580D01*
X129873214Y-90885580D02*
X129825595Y-90933200D01*
X129825595Y-90933200D02*
X129730357Y-90980819D01*
X129730357Y-90980819D02*
X129444643Y-90980819D01*
X129444643Y-90980819D02*
X129349405Y-90933200D01*
X129349405Y-90933200D02*
X129301786Y-90885580D01*
D13*
X81386190Y-63431979D02*
X81386190Y-63946026D01*
X81386190Y-63946026D02*
X81416428Y-64006502D01*
X81416428Y-64006502D02*
X81446666Y-64036741D01*
X81446666Y-64036741D02*
X81507142Y-64066979D01*
X81507142Y-64066979D02*
X81628095Y-64066979D01*
X81628095Y-64066979D02*
X81688571Y-64036741D01*
X81688571Y-64036741D02*
X81718809Y-64006502D01*
X81718809Y-64006502D02*
X81749047Y-63946026D01*
X81749047Y-63946026D02*
X81749047Y-63431979D01*
X82384047Y-64066979D02*
X82021190Y-64066979D01*
X82202618Y-64066979D02*
X82202618Y-63431979D01*
X82202618Y-63431979D02*
X82142142Y-63522693D01*
X82142142Y-63522693D02*
X82081666Y-63583169D01*
X82081666Y-63583169D02*
X82021190Y-63613407D01*
D12*
X127489902Y-82059166D02*
X127013711Y-82392499D01*
X127489902Y-82630594D02*
X126489902Y-82630594D01*
X126489902Y-82630594D02*
X126489902Y-82249642D01*
X126489902Y-82249642D02*
X126537521Y-82154404D01*
X126537521Y-82154404D02*
X126585140Y-82106785D01*
X126585140Y-82106785D02*
X126680378Y-82059166D01*
X126680378Y-82059166D02*
X126823235Y-82059166D01*
X126823235Y-82059166D02*
X126918473Y-82106785D01*
X126918473Y-82106785D02*
X126966092Y-82154404D01*
X126966092Y-82154404D02*
X127013711Y-82249642D01*
X127013711Y-82249642D02*
X127013711Y-82630594D01*
X126489902Y-81725832D02*
X126489902Y-81106785D01*
X126489902Y-81106785D02*
X126870854Y-81440118D01*
X126870854Y-81440118D02*
X126870854Y-81297261D01*
X126870854Y-81297261D02*
X126918473Y-81202023D01*
X126918473Y-81202023D02*
X126966092Y-81154404D01*
X126966092Y-81154404D02*
X127061330Y-81106785D01*
X127061330Y-81106785D02*
X127299425Y-81106785D01*
X127299425Y-81106785D02*
X127394663Y-81154404D01*
X127394663Y-81154404D02*
X127442283Y-81202023D01*
X127442283Y-81202023D02*
X127489902Y-81297261D01*
X127489902Y-81297261D02*
X127489902Y-81582975D01*
X127489902Y-81582975D02*
X127442283Y-81678213D01*
X127442283Y-81678213D02*
X127394663Y-81725832D01*
X136624295Y-71380475D02*
X135824295Y-71380475D01*
X135824295Y-71380475D02*
X135824295Y-71189999D01*
X135824295Y-71189999D02*
X135862390Y-71075713D01*
X135862390Y-71075713D02*
X135938580Y-70999523D01*
X135938580Y-70999523D02*
X136014771Y-70961428D01*
X136014771Y-70961428D02*
X136167152Y-70923332D01*
X136167152Y-70923332D02*
X136281438Y-70923332D01*
X136281438Y-70923332D02*
X136433819Y-70961428D01*
X136433819Y-70961428D02*
X136510009Y-70999523D01*
X136510009Y-70999523D02*
X136586200Y-71075713D01*
X136586200Y-71075713D02*
X136624295Y-71189999D01*
X136624295Y-71189999D02*
X136624295Y-71380475D01*
X136090961Y-70237618D02*
X136624295Y-70237618D01*
X135786200Y-70428094D02*
X136357628Y-70618571D01*
X136357628Y-70618571D02*
X136357628Y-70123332D01*
X150100297Y-71312259D02*
X150243154Y-71359878D01*
X150243154Y-71359878D02*
X150290773Y-71407497D01*
X150290773Y-71407497D02*
X150338392Y-71502735D01*
X150338392Y-71502735D02*
X150338392Y-71645592D01*
X150338392Y-71645592D02*
X150290773Y-71740830D01*
X150290773Y-71740830D02*
X150243154Y-71788450D01*
X150243154Y-71788450D02*
X150147916Y-71836069D01*
X150147916Y-71836069D02*
X149766964Y-71836069D01*
X149766964Y-71836069D02*
X149766964Y-70836069D01*
X149766964Y-70836069D02*
X150100297Y-70836069D01*
X150100297Y-70836069D02*
X150195535Y-70883688D01*
X150195535Y-70883688D02*
X150243154Y-70931307D01*
X150243154Y-70931307D02*
X150290773Y-71026545D01*
X150290773Y-71026545D02*
X150290773Y-71121783D01*
X150290773Y-71121783D02*
X150243154Y-71217021D01*
X150243154Y-71217021D02*
X150195535Y-71264640D01*
X150195535Y-71264640D02*
X150100297Y-71312259D01*
X150100297Y-71312259D02*
X149766964Y-71312259D01*
X150671726Y-70836069D02*
X151338392Y-70836069D01*
X151338392Y-70836069D02*
X150671726Y-71836069D01*
X150671726Y-71836069D02*
X151338392Y-71836069D01*
X152243154Y-71836069D02*
X151671726Y-71836069D01*
X151957440Y-71836069D02*
X151957440Y-70836069D01*
X151957440Y-70836069D02*
X151862202Y-70978926D01*
X151862202Y-70978926D02*
X151766964Y-71074164D01*
X151766964Y-71074164D02*
X151671726Y-71121783D01*
X146790298Y-76115116D02*
X147552203Y-76115116D01*
X147171250Y-76496069D02*
X147171250Y-75734164D01*
X89154167Y-90933200D02*
X89297024Y-90980819D01*
X89297024Y-90980819D02*
X89535119Y-90980819D01*
X89535119Y-90980819D02*
X89630357Y-90933200D01*
X89630357Y-90933200D02*
X89677976Y-90885580D01*
X89677976Y-90885580D02*
X89725595Y-90790342D01*
X89725595Y-90790342D02*
X89725595Y-90695104D01*
X89725595Y-90695104D02*
X89677976Y-90599866D01*
X89677976Y-90599866D02*
X89630357Y-90552247D01*
X89630357Y-90552247D02*
X89535119Y-90504628D01*
X89535119Y-90504628D02*
X89344643Y-90457009D01*
X89344643Y-90457009D02*
X89249405Y-90409390D01*
X89249405Y-90409390D02*
X89201786Y-90361771D01*
X89201786Y-90361771D02*
X89154167Y-90266533D01*
X89154167Y-90266533D02*
X89154167Y-90171295D01*
X89154167Y-90171295D02*
X89201786Y-90076057D01*
X89201786Y-90076057D02*
X89249405Y-90028438D01*
X89249405Y-90028438D02*
X89344643Y-89980819D01*
X89344643Y-89980819D02*
X89582738Y-89980819D01*
X89582738Y-89980819D02*
X89725595Y-90028438D01*
X90058929Y-89980819D02*
X90297024Y-90980819D01*
X90297024Y-90980819D02*
X90487500Y-90266533D01*
X90487500Y-90266533D02*
X90677976Y-90980819D01*
X90677976Y-90980819D02*
X90916072Y-89980819D01*
X91820833Y-90980819D02*
X91249405Y-90980819D01*
X91535119Y-90980819D02*
X91535119Y-89980819D01*
X91535119Y-89980819D02*
X91439881Y-90123676D01*
X91439881Y-90123676D02*
X91344643Y-90218914D01*
X91344643Y-90218914D02*
X91249405Y-90266533D01*
X146304167Y-90933200D02*
X146447024Y-90980819D01*
X146447024Y-90980819D02*
X146685119Y-90980819D01*
X146685119Y-90980819D02*
X146780357Y-90933200D01*
X146780357Y-90933200D02*
X146827976Y-90885580D01*
X146827976Y-90885580D02*
X146875595Y-90790342D01*
X146875595Y-90790342D02*
X146875595Y-90695104D01*
X146875595Y-90695104D02*
X146827976Y-90599866D01*
X146827976Y-90599866D02*
X146780357Y-90552247D01*
X146780357Y-90552247D02*
X146685119Y-90504628D01*
X146685119Y-90504628D02*
X146494643Y-90457009D01*
X146494643Y-90457009D02*
X146399405Y-90409390D01*
X146399405Y-90409390D02*
X146351786Y-90361771D01*
X146351786Y-90361771D02*
X146304167Y-90266533D01*
X146304167Y-90266533D02*
X146304167Y-90171295D01*
X146304167Y-90171295D02*
X146351786Y-90076057D01*
X146351786Y-90076057D02*
X146399405Y-90028438D01*
X146399405Y-90028438D02*
X146494643Y-89980819D01*
X146494643Y-89980819D02*
X146732738Y-89980819D01*
X146732738Y-89980819D02*
X146875595Y-90028438D01*
X147208929Y-89980819D02*
X147447024Y-90980819D01*
X147447024Y-90980819D02*
X147637500Y-90266533D01*
X147637500Y-90266533D02*
X147827976Y-90980819D01*
X147827976Y-90980819D02*
X148066072Y-89980819D01*
X148875595Y-90314152D02*
X148875595Y-90980819D01*
X148637500Y-89933200D02*
X148399405Y-90647485D01*
X148399405Y-90647485D02*
X149018452Y-90647485D01*
X133500569Y-82059166D02*
X133024378Y-82392499D01*
X133500569Y-82630594D02*
X132500569Y-82630594D01*
X132500569Y-82630594D02*
X132500569Y-82249642D01*
X132500569Y-82249642D02*
X132548188Y-82154404D01*
X132548188Y-82154404D02*
X132595807Y-82106785D01*
X132595807Y-82106785D02*
X132691045Y-82059166D01*
X132691045Y-82059166D02*
X132833902Y-82059166D01*
X132833902Y-82059166D02*
X132929140Y-82106785D01*
X132929140Y-82106785D02*
X132976759Y-82154404D01*
X132976759Y-82154404D02*
X133024378Y-82249642D01*
X133024378Y-82249642D02*
X133024378Y-82630594D01*
X132833902Y-81202023D02*
X133500569Y-81202023D01*
X132452950Y-81440118D02*
X133167235Y-81678213D01*
X133167235Y-81678213D02*
X133167235Y-81059166D01*
X115468569Y-82059166D02*
X114992378Y-82392499D01*
X115468569Y-82630594D02*
X114468569Y-82630594D01*
X114468569Y-82630594D02*
X114468569Y-82249642D01*
X114468569Y-82249642D02*
X114516188Y-82154404D01*
X114516188Y-82154404D02*
X114563807Y-82106785D01*
X114563807Y-82106785D02*
X114659045Y-82059166D01*
X114659045Y-82059166D02*
X114801902Y-82059166D01*
X114801902Y-82059166D02*
X114897140Y-82106785D01*
X114897140Y-82106785D02*
X114944759Y-82154404D01*
X114944759Y-82154404D02*
X114992378Y-82249642D01*
X114992378Y-82249642D02*
X114992378Y-82630594D01*
X115468569Y-81106785D02*
X115468569Y-81678213D01*
X115468569Y-81392499D02*
X114468569Y-81392499D01*
X114468569Y-81392499D02*
X114611426Y-81487737D01*
X114611426Y-81487737D02*
X114706664Y-81582975D01*
X114706664Y-81582975D02*
X114754283Y-81678213D01*
X108204167Y-90933200D02*
X108347024Y-90980819D01*
X108347024Y-90980819D02*
X108585119Y-90980819D01*
X108585119Y-90980819D02*
X108680357Y-90933200D01*
X108680357Y-90933200D02*
X108727976Y-90885580D01*
X108727976Y-90885580D02*
X108775595Y-90790342D01*
X108775595Y-90790342D02*
X108775595Y-90695104D01*
X108775595Y-90695104D02*
X108727976Y-90599866D01*
X108727976Y-90599866D02*
X108680357Y-90552247D01*
X108680357Y-90552247D02*
X108585119Y-90504628D01*
X108585119Y-90504628D02*
X108394643Y-90457009D01*
X108394643Y-90457009D02*
X108299405Y-90409390D01*
X108299405Y-90409390D02*
X108251786Y-90361771D01*
X108251786Y-90361771D02*
X108204167Y-90266533D01*
X108204167Y-90266533D02*
X108204167Y-90171295D01*
X108204167Y-90171295D02*
X108251786Y-90076057D01*
X108251786Y-90076057D02*
X108299405Y-90028438D01*
X108299405Y-90028438D02*
X108394643Y-89980819D01*
X108394643Y-89980819D02*
X108632738Y-89980819D01*
X108632738Y-89980819D02*
X108775595Y-90028438D01*
X109108929Y-89980819D02*
X109347024Y-90980819D01*
X109347024Y-90980819D02*
X109537500Y-90266533D01*
X109537500Y-90266533D02*
X109727976Y-90980819D01*
X109727976Y-90980819D02*
X109966072Y-89980819D01*
X110299405Y-90076057D02*
X110347024Y-90028438D01*
X110347024Y-90028438D02*
X110442262Y-89980819D01*
X110442262Y-89980819D02*
X110680357Y-89980819D01*
X110680357Y-89980819D02*
X110775595Y-90028438D01*
X110775595Y-90028438D02*
X110823214Y-90076057D01*
X110823214Y-90076057D02*
X110870833Y-90171295D01*
X110870833Y-90171295D02*
X110870833Y-90266533D01*
X110870833Y-90266533D02*
X110823214Y-90409390D01*
X110823214Y-90409390D02*
X110251786Y-90980819D01*
X110251786Y-90980819D02*
X110870833Y-90980819D01*
D14*
%TO.C,D2*%
X119423859Y-73209572D02*
X122555859Y-73209572D01*
X119423859Y-73209572D02*
G75*
G02*
X122555859Y-73209572I1566000J2506124D01*
G01*
D15*
X121089859Y-73909572D02*
G75*
G02*
X120889859Y-73909572I-100000J0D01*
G01*
X120889859Y-73909572D02*
G75*
G02*
X121089859Y-73909572I100000J0D01*
G01*
D14*
%TO.C,D1*%
X109933788Y-73209572D02*
X113065788Y-73209572D01*
X109933788Y-73209572D02*
G75*
G02*
X113065788Y-73209572I1566000J2506124D01*
G01*
D15*
X111599788Y-73909572D02*
G75*
G02*
X111399788Y-73909572I-100000J0D01*
G01*
X111399788Y-73909572D02*
G75*
G02*
X111599788Y-73909572I100000J0D01*
G01*
D14*
%TO.C,D3*%
X128913929Y-73209572D02*
X132045929Y-73209572D01*
X128913929Y-73209572D02*
G75*
G02*
X132045929Y-73209572I1566000J2506124D01*
G01*
D15*
X130579929Y-73909572D02*
G75*
G02*
X130379929Y-73909572I-100000J0D01*
G01*
X130379929Y-73909572D02*
G75*
G02*
X130579929Y-73909572I100000J0D01*
G01*
D16*
%TO.C,R2*%
X122024417Y-83812500D02*
X122024417Y-79972500D01*
X123864417Y-83812500D02*
X123864417Y-79972500D01*
%TO.C,SW3*%
X121602500Y-91415000D02*
X135572500Y-91415000D01*
X121602500Y-105385000D02*
X121602500Y-91415000D01*
X135572500Y-91415000D02*
X135572500Y-105385000D01*
X135572500Y-105385000D02*
X121602500Y-105385000D01*
D14*
%TO.C,U1*%
X81480000Y-84287500D02*
X81480000Y-67142500D01*
X83385000Y-86192500D02*
X97355000Y-86192500D01*
X85875000Y-65237500D02*
X85878728Y-64327228D01*
X86378728Y-63827500D02*
X94374000Y-63827500D01*
X94874000Y-64327500D02*
X94874000Y-65237500D01*
D11*
X97355000Y-65237500D02*
X83385000Y-65237500D01*
D14*
X97355000Y-65237500D02*
X83385000Y-65237500D01*
X99260000Y-84287500D02*
X99260000Y-67142500D01*
X81480000Y-67142500D02*
G75*
G02*
X83385000Y-65237500I1905001J-1D01*
G01*
X83385000Y-86192500D02*
G75*
G02*
X81480000Y-84287500I1J1905001D01*
G01*
X85878728Y-64327228D02*
G75*
G02*
X86378728Y-63827501I500018J-291D01*
G01*
X94374000Y-63827500D02*
G75*
G02*
X94874000Y-64327500I0J-500000D01*
G01*
X97355000Y-65237500D02*
G75*
G02*
X99260000Y-67142500I0J-1905000D01*
G01*
X99260000Y-84287500D02*
G75*
G02*
X97355000Y-86192500I-1905000J0D01*
G01*
D17*
X81672000Y-65478500D02*
G75*
G02*
X81168000Y-65478500I-252000J0D01*
G01*
X81168000Y-65478500D02*
G75*
G02*
X81672000Y-65478500I252000J0D01*
G01*
X82815000Y-66358500D02*
G75*
G02*
X82311000Y-66358500I-252000J0D01*
G01*
X82311000Y-66358500D02*
G75*
G02*
X82815000Y-66358500I252000J0D01*
G01*
D16*
%TO.C,R3*%
X128035083Y-83812500D02*
X128035083Y-79972500D01*
X129875083Y-83812500D02*
X129875083Y-79972500D01*
D14*
%TO.C,D4*%
X138404000Y-73330000D02*
X141536000Y-73330000D01*
X138404000Y-73330000D02*
G75*
G02*
X141536000Y-73330000I1566000J2506124D01*
G01*
D15*
X140070000Y-74030000D02*
G75*
G02*
X139870000Y-74030000I-100000J0D01*
G01*
X139870000Y-74030000D02*
G75*
G02*
X140070000Y-74030000I100000J0D01*
G01*
D16*
%TO.C,BZ1*%
X157081250Y-78581250D02*
G75*
G02*
X144881250Y-78581250I-6100000J0D01*
G01*
X144881250Y-78581250D02*
G75*
G02*
X157081250Y-78581250I6100000J0D01*
G01*
%TO.C,SW1*%
X83502500Y-91415000D02*
X97472500Y-91415000D01*
X83502500Y-105385000D02*
X83502500Y-91415000D01*
X97472500Y-91415000D02*
X97472500Y-105385000D01*
X97472500Y-105385000D02*
X83502500Y-105385000D01*
%TO.C,SW4*%
X140652500Y-91415000D02*
X154622500Y-91415000D01*
X140652500Y-105385000D02*
X140652500Y-91415000D01*
X154622500Y-91415000D02*
X154622500Y-105385000D01*
X154622500Y-105385000D02*
X140652500Y-105385000D01*
%TO.C,R4*%
X134045750Y-83812500D02*
X134045750Y-79972500D01*
X135885750Y-83812500D02*
X135885750Y-79972500D01*
%TO.C,R1*%
X116013750Y-83812500D02*
X116013750Y-79972500D01*
X117853750Y-83812500D02*
X117853750Y-79972500D01*
%TO.C,SW2*%
X102552500Y-91415000D02*
X116522500Y-91415000D01*
X102552500Y-105385000D02*
X102552500Y-91415000D01*
X116522500Y-91415000D02*
X116522500Y-105385000D01*
X116522500Y-105385000D02*
X102552500Y-105385000D01*
%TD*%
M02*
