%TF.GenerationSoftware,KiCad,Pcbnew,9.0.2*%
%TF.CreationDate,2025-08-01T16:28:31+05:30*%
%TF.ProjectId,xiao-timer,7869616f-2d74-4696-9d65-722e6b696361,rev?*%
%TF.SameCoordinates,Original*%
%TF.FileFunction,Copper,L1,Top*%
%TF.FilePolarity,Positive*%
%FSLAX46Y46*%
G04 Gerber Fmt 4.6, Leading zero omitted, Abs format (unit mm)*
G04 Created by KiCad (PCBNEW 9.0.2) date 2025-08-01 16:28:31*
%MOMM*%
%LPD*%
G01*
G04 APERTURE LIST*
G04 Aperture macros list*
%AMRoundRect*
0 Rectangle with rounded corners*
0 $1 Rounding radius*
0 $2 $3 $4 $5 $6 $7 $8 $9 X,Y pos of 4 corners*
0 Add a 4 corners polygon primitive as box body*
4,1,4,$2,$3,$4,$5,$6,$7,$8,$9,$2,$3,0*
0 Add four circle primitives for the rounded corners*
1,1,$1+$1,$2,$3*
1,1,$1+$1,$4,$5*
1,1,$1+$1,$6,$7*
1,1,$1+$1,$8,$9*
0 Add four rect primitives between the rounded corners*
20,1,$1+$1,$2,$3,$4,$5,0*
20,1,$1+$1,$4,$5,$6,$7,0*
20,1,$1+$1,$6,$7,$8,$9,0*
20,1,$1+$1,$8,$9,$2,$3,0*%
G04 Aperture macros list end*
%TA.AperFunction,ComponentPad*%
%ADD10C,1.815000*%
%TD*%
%TA.AperFunction,ComponentPad*%
%ADD11R,1.815000X1.815000*%
%TD*%
%TA.AperFunction,ComponentPad*%
%ADD12C,1.400000*%
%TD*%
%TA.AperFunction,ComponentPad*%
%ADD13C,2.200000*%
%TD*%
%TA.AperFunction,SMDPad,CuDef*%
%ADD14RoundRect,0.152400X1.063600X0.609600X-1.063600X0.609600X-1.063600X-0.609600X1.063600X-0.609600X0*%
%TD*%
%TA.AperFunction,ComponentPad*%
%ADD15C,1.524000*%
%TD*%
%TA.AperFunction,SMDPad,CuDef*%
%ADD16RoundRect,0.152400X-1.063600X-0.609600X1.063600X-0.609600X1.063600X0.609600X-1.063600X0.609600X0*%
%TD*%
%TA.AperFunction,ComponentPad*%
%ADD17R,2.000000X2.000000*%
%TD*%
%TA.AperFunction,ComponentPad*%
%ADD18C,2.000000*%
%TD*%
%TA.AperFunction,Conductor*%
%ADD19C,0.200000*%
%TD*%
G04 APERTURE END LIST*
D10*
%TO.P,D2,A*%
%TO.N,Net-(D2-PadA)*%
X120989859Y-69439572D03*
D11*
%TO.P,D2,C*%
%TO.N,GND*%
X120989859Y-71979572D03*
%TD*%
D10*
%TO.P,D1,A*%
%TO.N,Net-(D1-PadA)*%
X111499788Y-69439572D03*
D11*
%TO.P,D1,C*%
%TO.N,GND*%
X111499788Y-71979572D03*
%TD*%
D10*
%TO.P,D3,A*%
%TO.N,Net-(D3-PadA)*%
X130479929Y-69439572D03*
D11*
%TO.P,D3,C*%
%TO.N,GND*%
X130479929Y-71979572D03*
%TD*%
D12*
%TO.P,R2,1*%
%TO.N,Net-(D2-PadA)*%
X122944417Y-84432500D03*
%TO.P,R2,2*%
%TO.N,led2*%
X122944417Y-79352500D03*
%TD*%
D13*
%TO.P,SW3,1,1*%
%TO.N,btn3*%
X131127500Y-93320000D03*
%TO.P,SW3,2,2*%
%TO.N,GND*%
X124777500Y-95860000D03*
%TD*%
D14*
%TO.P,U1,1,GPIO26/ADC0/A0*%
%TO.N,btn1*%
X81915000Y-68158500D03*
D15*
X82750000Y-68158500D03*
D14*
%TO.P,U1,2,GPIO27/ADC1/A1*%
%TO.N,btn2*%
X81915000Y-70698500D03*
D15*
X82750000Y-70698500D03*
D14*
%TO.P,U1,3,GPIO28/ADC2/A2*%
%TO.N,btn3*%
X81915000Y-73238500D03*
D15*
X82750000Y-73238500D03*
D14*
%TO.P,U1,4,GPIO29/ADC3/A3*%
%TO.N,btn4*%
X81915000Y-75778500D03*
D15*
X82750000Y-75778500D03*
D14*
%TO.P,U1,5,GPIO6/SDA*%
%TO.N,led1*%
X81915000Y-78318500D03*
D15*
X82750000Y-78318500D03*
D14*
%TO.P,U1,6,GPIO7/SCL*%
%TO.N,led2*%
X81915000Y-80858500D03*
D15*
X82750000Y-80858500D03*
D14*
%TO.P,U1,7,GPIO0/TX*%
%TO.N,led3*%
X81915000Y-83398500D03*
D15*
X82750000Y-83398500D03*
%TO.P,U1,8,GPIO1/RX*%
%TO.N,led4*%
X97990000Y-83398500D03*
D16*
X98825000Y-83398500D03*
D15*
%TO.P,U1,9,GPIO2/SCK*%
%TO.N,buzzer*%
X97990000Y-80858500D03*
D16*
X98825000Y-80858500D03*
D15*
%TO.P,U1,10,GPIO4/MISO*%
%TO.N,unconnected-(U1-GPIO4{slash}MISO-Pad10)*%
X97990000Y-78318500D03*
D16*
X98825000Y-78318500D03*
D15*
%TO.P,U1,11,GPIO3/MOSI*%
%TO.N,unconnected-(U1-GPIO3{slash}MOSI-Pad11)*%
X97990000Y-75778500D03*
D16*
X98825000Y-75778500D03*
D15*
%TO.P,U1,12,3V3*%
%TO.N,unconnected-(U1-3V3-Pad12)*%
X97990000Y-73238500D03*
D16*
X98825000Y-73238500D03*
D15*
%TO.P,U1,13,GND*%
%TO.N,GND*%
X97990000Y-70698500D03*
D16*
X98825000Y-70698500D03*
D15*
%TO.P,U1,14,VBUS*%
%TO.N,unconnected-(U1-VBUS-Pad14)*%
X97990000Y-68158500D03*
D16*
X98825000Y-68158500D03*
%TD*%
D12*
%TO.P,R3,1*%
%TO.N,Net-(D3-PadA)*%
X128955083Y-84432500D03*
%TO.P,R3,2*%
%TO.N,led3*%
X128955083Y-79352500D03*
%TD*%
D10*
%TO.P,D4,A*%
%TO.N,Net-(D4-PadA)*%
X139970000Y-69560000D03*
D11*
%TO.P,D4,C*%
%TO.N,GND*%
X139970000Y-72100000D03*
%TD*%
D17*
%TO.P,BZ1,1,+*%
%TO.N,buzzer*%
X147181250Y-78581250D03*
D18*
%TO.P,BZ1,2,-*%
%TO.N,GND*%
X154781250Y-78581250D03*
%TD*%
D13*
%TO.P,SW1,1,1*%
%TO.N,btn1*%
X93027500Y-93320000D03*
%TO.P,SW1,2,2*%
%TO.N,GND*%
X86677500Y-95860000D03*
%TD*%
%TO.P,SW4,1,1*%
%TO.N,btn4*%
X150177500Y-93320000D03*
%TO.P,SW4,2,2*%
%TO.N,GND*%
X143827500Y-95860000D03*
%TD*%
D12*
%TO.P,R4,1*%
%TO.N,Net-(D4-PadA)*%
X134965750Y-84432500D03*
%TO.P,R4,2*%
%TO.N,led4*%
X134965750Y-79352500D03*
%TD*%
%TO.P,R1,1*%
%TO.N,Net-(D1-PadA)*%
X116933750Y-84432500D03*
%TO.P,R1,2*%
%TO.N,led1*%
X116933750Y-79352500D03*
%TD*%
D13*
%TO.P,SW2,1,1*%
%TO.N,btn2*%
X112077500Y-93320000D03*
%TO.P,SW2,2,2*%
%TO.N,GND*%
X105727500Y-95860000D03*
%TD*%
D19*
%TO.N,GND*%
X86677500Y-95860000D02*
X105727500Y-95860000D01*
X139970000Y-72100000D02*
X130600357Y-72100000D01*
X124777500Y-95860000D02*
X143827500Y-95860000D01*
X130600357Y-72100000D02*
X130479929Y-71979572D01*
X148300000Y-72100000D02*
X139970000Y-72100000D01*
X143827500Y-89535000D02*
X154781250Y-78581250D01*
X130479929Y-71979572D02*
X120989859Y-71979572D01*
X120989859Y-71979572D02*
X111499788Y-71979572D01*
X154781250Y-78581250D02*
X148300000Y-72100000D01*
X143827500Y-95860000D02*
X143827500Y-89535000D01*
X111499788Y-71979572D02*
X99271072Y-71979572D01*
X99271072Y-71979572D02*
X97990000Y-70698500D01*
X105727500Y-95860000D02*
X124777500Y-95860000D01*
%TO.N,led1*%
X111882750Y-74301500D02*
X91181500Y-74301500D01*
X80659374Y-67095500D02*
X80398000Y-67356874D01*
X80398000Y-67356874D02*
X80398000Y-77044130D01*
X91181500Y-74301500D02*
X83975500Y-67095500D01*
X116933750Y-79352500D02*
X111882750Y-74301500D01*
X83975500Y-67095500D02*
X80659374Y-67095500D01*
X81672370Y-78318500D02*
X82750000Y-78318500D01*
X80398000Y-77044130D02*
X81672370Y-78318500D01*
%TO.N,btn1*%
X93027500Y-93320000D02*
X93027500Y-78436000D01*
X93027500Y-78436000D02*
X82750000Y-68158500D01*
%TO.N,btn2*%
X93607814Y-94721000D02*
X92447186Y-94721000D01*
X91790000Y-79738500D02*
X82750000Y-70698500D01*
X91626500Y-80163500D02*
X91870000Y-79920000D01*
X112077500Y-93320000D02*
X95008814Y-93320000D01*
X91626500Y-93900314D02*
X91626500Y-80163500D01*
X91870000Y-79920000D02*
X91790000Y-79840000D01*
X92447186Y-94721000D02*
X91626500Y-93900314D01*
X91790000Y-79840000D02*
X91790000Y-79738500D01*
X95008814Y-93320000D02*
X93607814Y-94721000D01*
%TO.N,btn3*%
X110497186Y-93721000D02*
X95174914Y-93721000D01*
X90400000Y-93240914D02*
X90400000Y-80888500D01*
X131127500Y-93320000D02*
X114058814Y-93320000D01*
X112657814Y-94721000D02*
X111497186Y-94721000D01*
X111497186Y-94721000D02*
X110497186Y-93721000D01*
X93773914Y-95122000D02*
X92281086Y-95122000D01*
X92281086Y-95122000D02*
X90400000Y-93240914D01*
X95174914Y-93721000D02*
X93773914Y-95122000D01*
X90400000Y-80888500D02*
X82750000Y-73238500D01*
X114058814Y-93320000D02*
X112657814Y-94721000D01*
%TO.N,btn4*%
X88621500Y-81650000D02*
X82750000Y-75778500D01*
X88670000Y-81650000D02*
X88621500Y-81650000D01*
X150177500Y-93320000D02*
X149370000Y-93320000D01*
X85276500Y-96513816D02*
X85276500Y-91273500D01*
X89513684Y-100751000D02*
X85276500Y-96513816D01*
X88670000Y-87880000D02*
X88670000Y-81650000D01*
X149370000Y-93320000D02*
X141939000Y-100751000D01*
X85276500Y-91273500D02*
X88670000Y-87880000D01*
X141939000Y-100751000D02*
X89513684Y-100751000D01*
%TD*%
M02*
